STARTFONT 2.1
FONT -B&H-Lucida Sans Typewriter-Bold-R-Normal-Sans-17-170-72-72-M-100-ISO8859-1
SIZE 17 72 72
FONTBOUNDINGBOX 11 19 0 -4

STARTPROPERTIES 22
FONTNAME_REGISTRY "-"
FOUNDRY "B&H"
FAMILY_NAME "Lucida Sans Typewriter"
WEIGHT_NAME "Bold"
SLANT "R"
SETWIDTH_NAME "Normal"
ADD_STYLE_NAME "Sans"
SPACING "M"
CHARSET_REGISTRY "ISO8859"
CHARSET_ENCODING "1"
PIXEL_SIZE 17
POINT_SIZE 170
RESOLUTION_X 72
RESOLUTION_Y 72
AVERAGE_WIDTH 100
FULL_NAME "LucidaSans-TypewriterBold"
WEIGHT 10
X_HEIGHT 9
QUAD_WIDTH 10
DEFAULT_CHAR 32
FONT_DESCENT 4
FONT_ASCENT 16
ENDPROPERTIES

CHARS 190

STARTCHAR space
ENCODING 32
SWIDTH 602 0
DWIDTH 10 0
BBX 1 1 0 0
BITMAP
00
ENDCHAR

STARTCHAR exclam
ENCODING 33
SWIDTH 602 0
DWIDTH 10 0
BBX 2 12 4 0
BITMAP
C0
C0
C0
C0
C0
40
40
40
00
00
C0
C0
ENDCHAR

STARTCHAR quotedbl
ENCODING 34
SWIDTH 602 0
DWIDTH 10 0
BBX 6 5 2 7
BITMAP
CC
CC
CC
88
88
ENDCHAR

STARTCHAR numbersign
ENCODING 35
SWIDTH 602 0
DWIDTH 10 0
BBX 9 12 1 0
BITMAP
0900
0900
1200
7F80
7F80
3600
FF00
FF00
2400
2800
4800
4800
ENDCHAR

STARTCHAR dollar
ENCODING 36
SWIDTH 602 0
DWIDTH 10 0
BBX 6 14 2 -1
BITMAP
20
7C
FC
A4
A0
E0
60
30
28
24
AC
FC
F8
20
ENDCHAR

STARTCHAR percent
ENCODING 37
SWIDTH 602 0
DWIDTH 10 0
BBX 11 12 0 0
BITMAP
70C0
F880
8900
8900
8A00
FBC0
77E0
0620
0A20
0A20
13E0
31C0
ENDCHAR

STARTCHAR ampersand
ENCODING 38
SWIDTH 602 0
DWIDTH 10 0
BBX 9 12 1 0
BITMAP
3C00
7E00
6600
6600
3C00
3880
7880
CC80
C700
C600
7F00
3B80
ENDCHAR

STARTCHAR quoteright
ENCODING 39
SWIDTH 602 0
DWIDTH 10 0
BBX 2 4 4 8
BITMAP
C0
C0
40
C0
ENDCHAR

STARTCHAR parenleft
ENCODING 40
SWIDTH 602 0
DWIDTH 10 0
BBX 6 14 3 -2
BITMAP
1C
3C
78
60
E0
C0
C0
C0
C0
E0
60
38
1C
0C
ENDCHAR

STARTCHAR parenright
ENCODING 41
SWIDTH 602 0
DWIDTH 10 0
BBX 6 14 1 -2
BITMAP
E0
F0
78
18
1C
0C
0C
0C
0C
18
18
70
E0
C0
ENDCHAR

STARTCHAR asterisk
ENCODING 42
SWIDTH 602 0
DWIDTH 10 0
BBX 8 7 2 5
BITMAP
18
5A
E7
24
38
6E
24
ENDCHAR

STARTCHAR plus
ENCODING 43
SWIDTH 602 0
DWIDTH 10 0
BBX 9 9 1 0
BITMAP
0800
0800
0800
FF80
FF80
0800
0800
0800
0800
ENDCHAR

STARTCHAR comma
ENCODING 44
SWIDTH 602 0
DWIDTH 10 0
BBX 2 5 4 -2
BITMAP
C0
C0
C0
40
80
ENDCHAR

STARTCHAR minus
ENCODING 45
SWIDTH 602 0
DWIDTH 10 0
BBX 9 2 1 4
BITMAP
FF80
FF80
ENDCHAR

STARTCHAR period
ENCODING 46
SWIDTH 602 0
DWIDTH 10 0
BBX 2 2 4 0
BITMAP
C0
C0
ENDCHAR

STARTCHAR slash
ENCODING 47
SWIDTH 602 0
DWIDTH 10 0
BBX 10 14 0 -2
BITMAP
00C0
0080
0100
0300
0200
0600
0400
0800
0800
1000
3000
2000
4000
C000
ENDCHAR

STARTCHAR zero
ENCODING 48
SWIDTH 602 0
DWIDTH 10 0
BBX 8 12 1 0
BITMAP
3C
7E
66
C3
C3
C3
C3
C3
C3
66
7E
3C
ENDCHAR

STARTCHAR one
ENCODING 49
SWIDTH 602 0
DWIDTH 10 0
BBX 6 12 3 0
BITMAP
F0
F0
30
30
30
30
30
30
30
30
FC
FC
ENDCHAR

STARTCHAR two
ENCODING 50
SWIDTH 602 0
DWIDTH 10 0
BBX 6 12 2 0
BITMAP
F8
FC
8C
0C
0C
18
10
20
60
40
FC
FC
ENDCHAR

STARTCHAR three
ENCODING 51
SWIDTH 602 0
DWIDTH 10 0
BBX 6 12 2 0
BITMAP
F8
FC
8C
0C
18
60
78
1C
0C
8C
F8
F0
ENDCHAR

STARTCHAR four
ENCODING 52
SWIDTH 602 0
DWIDTH 10 0
BBX 9 12 1 0
BITMAP
0600
0E00
1E00
1600
2600
6600
4600
FF80
FF80
0600
0600
0600
ENDCHAR

STARTCHAR five
ENCODING 53
SWIDTH 602 0
DWIDTH 10 0
BBX 6 12 2 0
BITMAP
FC
FC
80
80
F0
F8
1C
0C
0C
9C
F8
F0
ENDCHAR

STARTCHAR six
ENCODING 54
SWIDTH 602 0
DWIDTH 10 0
BBX 8 12 1 0
BITMAP
1F
3F
61
C0
DC
FE
E7
C3
C3
67
7E
3C
ENDCHAR

STARTCHAR seven
ENCODING 55
SWIDTH 602 0
DWIDTH 10 0
BBX 6 12 3 0
BITMAP
FC
FC
08
18
10
30
20
60
40
C0
C0
C0
ENDCHAR

STARTCHAR eight
ENCODING 56
SWIDTH 602 0
DWIDTH 10 0
BBX 8 12 1 0
BITMAP
3E
7F
C3
C3
76
3C
7E
EF
C3
E3
FE
3C
ENDCHAR

STARTCHAR nine
ENCODING 57
SWIDTH 602 0
DWIDTH 10 0
BBX 8 12 1 0
BITMAP
3C
7E
E6
C3
C3
E7
7F
3B
03
86
FC
F8
ENDCHAR

STARTCHAR colon
ENCODING 58
SWIDTH 602 0
DWIDTH 10 0
BBX 2 9 4 0
BITMAP
C0
C0
00
00
00
00
00
C0
C0
ENDCHAR

STARTCHAR semicolon
ENCODING 59
SWIDTH 602 0
DWIDTH 10 0
BBX 2 11 4 -2
BITMAP
C0
C0
00
00
00
00
C0
C0
C0
40
80
ENDCHAR

STARTCHAR less
ENCODING 60
SWIDTH 602 0
DWIDTH 10 0
BBX 7 9 2 0
BITMAP
02
06
18
60
80
60
18
06
02
ENDCHAR

STARTCHAR equal
ENCODING 61
SWIDTH 602 0
DWIDTH 10 0
BBX 9 5 1 2
BITMAP
FF80
FF80
0000
FF80
FF80
ENDCHAR

STARTCHAR greater
ENCODING 62
SWIDTH 602 0
DWIDTH 10 0
BBX 7 9 1 0
BITMAP
80
C0
30
0C
02
0C
30
C0
80
ENDCHAR

STARTCHAR question
ENCODING 63
SWIDTH 602 0
DWIDTH 10 0
BBX 8 12 1 0
BITMAP
7E
FF
83
83
06
0C
10
30
00
00
30
30
ENDCHAR

STARTCHAR at
ENCODING 64
SWIDTH 602 0
DWIDTH 10 0
BBX 9 12 1 0
BITMAP
1E00
2300
4100
CF00
8900
9100
9100
9300
9500
4D80
6200
3E00
ENDCHAR

STARTCHAR A
ENCODING 65
SWIDTH 602 0
DWIDTH 10 0
BBX 10 12 0 0
BITMAP
0C00
0E00
1E00
1600
1700
2300
2300
3F00
7F80
4180
4180
81C0
ENDCHAR

STARTCHAR B
ENCODING 66
SWIDTH 602 0
DWIDTH 10 0
BBX 8 12 1 0
BITMAP
FE
FF
C3
C3
C6
FC
FE
C7
C3
C3
FF
FE
ENDCHAR

STARTCHAR C
ENCODING 67
SWIDTH 602 0
DWIDTH 10 0
BBX 9 12 1 0
BITMAP
1F80
3F80
7080
E000
C000
C000
C000
C000
E000
7080
3F80
1F00
ENDCHAR

STARTCHAR D
ENCODING 68
SWIDTH 602 0
DWIDTH 10 0
BBX 9 12 1 0
BITMAP
FE00
FF00
C780
C380
C180
C180
C180
C180
C180
C300
FF00
FC00
ENDCHAR

STARTCHAR E
ENCODING 69
SWIDTH 602 0
DWIDTH 10 0
BBX 7 12 2 0
BITMAP
FE
FE
C0
C0
C0
FC
FC
C0
C0
C0
FE
FE
ENDCHAR

STARTCHAR F
ENCODING 70
SWIDTH 602 0
DWIDTH 10 0
BBX 8 12 2 0
BITMAP
FF
FF
C0
C0
C0
FE
FE
C0
C0
C0
C0
C0
ENDCHAR

STARTCHAR G
ENCODING 71
SWIDTH 602 0
DWIDTH 10 0
BBX 9 12 1 0
BITMAP
1F80
3F80
7080
E000
C000
C000
C180
C180
E180
7180
3F80
1F80
ENDCHAR

STARTCHAR H
ENCODING 72
SWIDTH 602 0
DWIDTH 10 0
BBX 8 12 1 0
BITMAP
C3
C3
C3
C3
C3
FF
FF
C3
C3
C3
C3
C3
ENDCHAR

STARTCHAR I
ENCODING 73
SWIDTH 602 0
DWIDTH 10 0
BBX 8 12 1 0
BITMAP
FF
FF
18
18
18
18
18
18
18
18
FF
FF
ENDCHAR

STARTCHAR J
ENCODING 74
SWIDTH 602 0
DWIDTH 10 0
BBX 7 12 2 0
BITMAP
7E
7E
06
06
06
06
06
06
06
0E
FC
F8
ENDCHAR

STARTCHAR K
ENCODING 75
SWIDTH 602 0
DWIDTH 10 0
BBX 8 12 2 0
BITMAP
C3
C6
C4
C8
D0
F0
F8
D8
DC
CC
C6
C7
ENDCHAR

STARTCHAR L
ENCODING 76
SWIDTH 602 0
DWIDTH 10 0
BBX 8 12 2 0
BITMAP
C0
C0
C0
C0
C0
C0
C0
C0
C0
C0
FF
FF
ENDCHAR

STARTCHAR M
ENCODING 77
SWIDTH 602 0
DWIDTH 10 0
BBX 9 12 1 0
BITMAP
C380
C380
E380
A380
A780
A580
B580
9580
9580
9980
9980
8180
ENDCHAR

STARTCHAR N
ENCODING 78
SWIDTH 602 0
DWIDTH 10 0
BBX 8 12 1 0
BITMAP
C1
E1
E1
B1
B1
99
99
8D
8D
87
87
83
ENDCHAR

STARTCHAR O
ENCODING 79
SWIDTH 602 0
DWIDTH 10 0
BBX 9 12 1 0
BITMAP
3E00
7F00
6300
C180
C180
C180
C180
C180
C180
6300
7F00
3E00
ENDCHAR

STARTCHAR P
ENCODING 80
SWIDTH 602 0
DWIDTH 10 0
BBX 8 12 2 0
BITMAP
FE
FF
C3
C3
C3
C7
FE
FC
C0
C0
C0
C0
ENDCHAR

STARTCHAR Q
ENCODING 81
SWIDTH 602 0
DWIDTH 10 0
BBX 10 14 1 -2
BITMAP
3E00
7F00
6300
C180
C180
C180
C180
C180
C180
6300
7E00
3C00
03C0
0180
ENDCHAR

STARTCHAR R
ENCODING 82
SWIDTH 602 0
DWIDTH 10 0
BBX 9 12 1 0
BITMAP
FE00
FF00
C300
C300
C700
FE00
FC00
CC00
CE00
C600
C700
C380
ENDCHAR

STARTCHAR S
ENCODING 83
SWIDTH 602 0
DWIDTH 10 0
BBX 9 12 1 0
BITMAP
3F00
FF00
C100
C000
F000
3C00
0F00
0380
0180
8380
FF00
FE00
ENDCHAR

STARTCHAR T
ENCODING 84
SWIDTH 602 0
DWIDTH 10 0
BBX 10 12 0 0
BITMAP
FFC0
FFC0
0C00
0C00
0C00
0C00
0C00
0C00
0C00
0C00
0C00
0C00
ENDCHAR

STARTCHAR U
ENCODING 85
SWIDTH 602 0
DWIDTH 10 0
BBX 8 12 1 0
BITMAP
C1
C1
C1
C1
C1
C1
C1
C1
C1
E3
7E
3C
ENDCHAR

STARTCHAR V
ENCODING 86
SWIDTH 602 0
DWIDTH 10 0
BBX 10 12 0 0
BITMAP
C0C0
6080
6080
6100
3100
3100
3200
3A00
1A00
1E00
1C00
0C00
ENDCHAR

STARTCHAR W
ENCODING 87
SWIDTH 602 0
DWIDTH 10 0
BBX 10 12 0 0
BITMAP
E040
E6C0
E6C0
EEC0
6EC0
6EC0
6B80
7380
7380
7380
7380
3380
ENDCHAR

STARTCHAR X
ENCODING 88
SWIDTH 602 0
DWIDTH 10 0
BBX 9 12 0 0
BITMAP
E080
6100
3300
3A00
1C00
1C00
0C00
1600
1600
2300
4380
C180
ENDCHAR

STARTCHAR Y
ENCODING 89
SWIDTH 602 0
DWIDTH 10 0
BBX 10 12 0 0
BITMAP
E0C0
6080
3100
3100
1A00
1E00
0C00
0C00
0C00
0C00
0C00
0C00
ENDCHAR

STARTCHAR Z
ENCODING 90
SWIDTH 602 0
DWIDTH 10 0
BBX 9 12 1 0
BITMAP
FF80
FF80
0700
0600
0E00
1C00
1800
3800
7000
6000
FF80
FF80
ENDCHAR

STARTCHAR bracketleft
ENCODING 91
SWIDTH 602 0
DWIDTH 10 0
BBX 6 14 3 -2
BITMAP
FC
FC
C0
C0
C0
C0
C0
C0
C0
C0
C0
C0
FC
FC
ENDCHAR

STARTCHAR backslash
ENCODING 92
SWIDTH 602 0
DWIDTH 10 0
BBX 10 14 0 -2
BITMAP
C000
4000
2000
3000
1000
0800
0800
0400
0400
0200
0300
0100
0080
00C0
ENDCHAR

STARTCHAR bracketright
ENCODING 93
SWIDTH 602 0
DWIDTH 10 0
BBX 6 14 1 -2
BITMAP
FC
FC
0C
0C
0C
0C
0C
0C
0C
0C
0C
0C
FC
FC
ENDCHAR

STARTCHAR asciicircum
ENCODING 94
SWIDTH 602 0
DWIDTH 10 0
BBX 9 9 1 2
BITMAP
0800
0800
1400
1400
2200
2200
6300
4100
C180
ENDCHAR

STARTCHAR underscore
ENCODING 95
SWIDTH 602 0
DWIDTH 10 0
BBX 10 2 0 -2
BITMAP
FFC0
FFC0
ENDCHAR

STARTCHAR quoteleft
ENCODING 96
SWIDTH 602 0
DWIDTH 10 0
BBX 2 5 4 7
BITMAP
40
80
C0
C0
C0
ENDCHAR

STARTCHAR a
ENCODING 97
SWIDTH 602 0
DWIDTH 10 0
BBX 9 9 1 0
BITMAP
3E00
7F00
4300
3F00
FF00
C300
C700
FF80
7B80
ENDCHAR

STARTCHAR b
ENCODING 98
SWIDTH 602 0
DWIDTH 10 0
BBX 8 13 1 0
BITMAP
C0
C0
C0
C0
DC
FE
FF
E3
C3
C3
C7
FE
DC
ENDCHAR

STARTCHAR c
ENCODING 99
SWIDTH 602 0
DWIDTH 10 0
BBX 8 9 1 0
BITMAP
3F
7F
E1
C0
C0
C0
E0
7F
3F
ENDCHAR

STARTCHAR d
ENCODING 100
SWIDTH 602 0
DWIDTH 10 0
BBX 8 13 1 0
BITMAP
03
03
03
03
3B
7F
E3
C3
C3
C7
FF
7F
3B
ENDCHAR

STARTCHAR e
ENCODING 101
SWIDTH 602 0
DWIDTH 10 0
BBX 8 9 1 0
BITMAP
3C
7E
E3
C3
FF
FF
C0
7F
3F
ENDCHAR

STARTCHAR f
ENCODING 102
SWIDTH 602 0
DWIDTH 10 0
BBX 8 13 2 0
BITMAP
1F
3F
30
30
FE
FE
30
30
30
30
30
30
30
ENDCHAR

STARTCHAR g
ENCODING 103
SWIDTH 602 0
DWIDTH 10 0
BBX 8 12 1 -3
BITMAP
3B
7F
E3
C3
C3
C7
FF
7F
3B
43
7E
3C
ENDCHAR

STARTCHAR h
ENCODING 104
SWIDTH 602 0
DWIDTH 10 0
BBX 8 13 1 0
BITMAP
C0
C0
C0
C0
DE
FF
FF
E3
C3
C3
C3
C3
C3
ENDCHAR

STARTCHAR i
ENCODING 105
SWIDTH 602 0
DWIDTH 10 0
BBX 5 13 2 0
BITMAP
18
18
18
00
F8
F8
18
18
18
18
18
18
18
ENDCHAR

STARTCHAR j
ENCODING 106
SWIDTH 602 0
DWIDTH 10 0
BBX 6 16 1 -3
BITMAP
0C
0C
0C
00
7C
7C
0C
0C
0C
0C
0C
0C
0C
8C
FC
F8
ENDCHAR

STARTCHAR k
ENCODING 107
SWIDTH 602 0
DWIDTH 10 0
BBX 8 13 1 0
BITMAP
C0
C0
C0
C0
C2
C4
C8
D8
F8
DC
CE
C6
C3
ENDCHAR

STARTCHAR l
ENCODING 108
SWIDTH 602 0
DWIDTH 10 0
BBX 5 13 1 0
BITMAP
F8
F8
18
18
18
18
18
18
18
18
18
18
18
ENDCHAR

STARTCHAR m
ENCODING 109
SWIDTH 602 0
DWIDTH 10 0
BBX 10 9 0 0
BITMAP
F980
FFC0
FFC0
CCC0
CCC0
CCC0
CCC0
CCC0
CCC0
ENDCHAR

STARTCHAR n
ENCODING 110
SWIDTH 602 0
DWIDTH 10 0
BBX 8 9 1 0
BITMAP
DE
FF
FF
E3
C3
C3
C3
C3
C3
ENDCHAR

STARTCHAR o
ENCODING 111
SWIDTH 602 0
DWIDTH 10 0
BBX 9 9 1 0
BITMAP
3E00
7F00
E380
C180
C180
C180
E380
7F00
3E00
ENDCHAR

STARTCHAR p
ENCODING 112
SWIDTH 602 0
DWIDTH 10 0
BBX 8 12 1 -3
BITMAP
DC
FE
FF
E3
C3
C3
C7
FE
DC
C0
C0
C0
ENDCHAR

STARTCHAR q
ENCODING 113
SWIDTH 602 0
DWIDTH 10 0
BBX 8 12 1 -3
BITMAP
3B
7F
E3
C3
C3
C7
FF
7F
3B
03
03
03
ENDCHAR

STARTCHAR r
ENCODING 114
SWIDTH 602 0
DWIDTH 10 0
BBX 7 9 2 0
BITMAP
DE
FE
FE
E2
C2
C0
C0
C0
C0
ENDCHAR

STARTCHAR s
ENCODING 115
SWIDTH 602 0
DWIDTH 10 0
BBX 9 9 1 0
BITMAP
3F00
FF00
E100
F000
3F00
0780
8380
FF80
7E00
ENDCHAR

STARTCHAR t
ENCODING 116
SWIDTH 602 0
DWIDTH 10 0
BBX 7 11 2 0
BITMAP
30
30
FE
FE
30
30
30
30
30
3E
1E
ENDCHAR

STARTCHAR u
ENCODING 117
SWIDTH 602 0
DWIDTH 10 0
BBX 8 9 1 0
BITMAP
C3
C3
C3
C3
C3
C7
FF
FF
7B
ENDCHAR

STARTCHAR v
ENCODING 118
SWIDTH 602 0
DWIDTH 10 0
BBX 9 9 0 0
BITMAP
E080
6080
6100
3100
3200
3200
1A00
1C00
0C00
ENDCHAR

STARTCHAR w
ENCODING 119
SWIDTH 602 0
DWIDTH 10 0
BBX 10 9 0 0
BITMAP
E0C0
E6C0
EEC0
6EC0
6F80
7380
7380
7380
6380
ENDCHAR

STARTCHAR x
ENCODING 120
SWIDTH 602 0
DWIDTH 10 0
BBX 9 9 1 0
BITMAP
E180
7300
3200
1C00
0C00
1E00
2600
6300
C380
ENDCHAR

STARTCHAR y
ENCODING 121
SWIDTH 602 0
DWIDTH 10 0
BBX 9 12 0 -3
BITMAP
E080
6080
3100
3100
1A00
1A00
0C00
0C00
0800
0800
7000
6000
ENDCHAR

STARTCHAR z
ENCODING 122
SWIDTH 602 0
DWIDTH 10 0
BBX 8 9 1 0
BITMAP
FF
FF
06
0C
18
30
70
FF
FF
ENDCHAR

STARTCHAR braceleft
ENCODING 123
SWIDTH 602 0
DWIDTH 10 0
BBX 7 14 2 -2
BITMAP
1E
3E
30
30
30
F0
E0
20
30
30
30
30
3E
1E
ENDCHAR

STARTCHAR bar
ENCODING 124
SWIDTH 602 0
DWIDTH 10 0
BBX 1 14 5 -2
BITMAP
80
80
80
80
80
80
80
80
80
80
80
80
80
80
ENDCHAR

STARTCHAR braceright
ENCODING 125
SWIDTH 602 0
DWIDTH 10 0
BBX 8 14 1 -2
BITMAP
F0
F8
18
18
18
1F
0F
08
18
18
18
18
F8
F0
ENDCHAR

STARTCHAR asciitilde
ENCODING 126
SWIDTH 602 0
DWIDTH 10 0
BBX 8 3 1 3
BITMAP
71
FF
8E
ENDCHAR

STARTCHAR exclamdown
ENCODING 161
SWIDTH 602 0
DWIDTH 10 0
BBX 2 12 4 -3
BITMAP
C0
C0
00
00
40
40
40
C0
C0
C0
C0
C0
ENDCHAR

STARTCHAR cent
ENCODING 162
SWIDTH 602 0
DWIDTH 10 0
BBX 7 12 1 0
BITMAP
08
1E
7E
68
C8
C8
C8
C8
68
7E
1E
08
ENDCHAR

STARTCHAR sterling
ENCODING 163
SWIDTH 602 0
DWIDTH 10 0
BBX 6 12 2 0
BITMAP
3C
7C
60
60
60
F8
F8
60
60
C0
FC
FC
ENDCHAR

STARTCHAR currency
ENCODING 164
SWIDTH 602 0
DWIDTH 10 0
BBX 9 8 1 2
BITMAP
DD00
7F80
2200
4100
6300
3E00
DD00
8180
ENDCHAR

STARTCHAR yen
ENCODING 165
SWIDTH 602 0
DWIDTH 10 0
BBX 10 12 0 0
BITMAP
E0C0
7180
3100
1A00
1E00
0C00
3F00
0C00
3F00
0C00
0C00
0C00
ENDCHAR

STARTCHAR brokenbar
ENCODING 166
SWIDTH 602 0
DWIDTH 10 0
BBX 1 14 5 -2
BITMAP
80
80
80
80
80
00
00
00
80
80
80
80
80
80
ENDCHAR

STARTCHAR section
ENCODING 167
SWIDTH 602 0
DWIDTH 10 0
BBX 7 14 2 -2
BITMAP
7C
FC
84
80
60
F8
84
84
7C
18
06
86
FE
FC
ENDCHAR

STARTCHAR dieresis
ENCODING 168
SWIDTH 602 0
DWIDTH 10 0
BBX 5 2 3 10
BITMAP
D8
D8
ENDCHAR

STARTCHAR copyright
ENCODING 169
SWIDTH 602 0
DWIDTH 10 0
BBX 9 12 1 0
BITMAP
3E00
6300
4100
9E80
B280
A080
A080
A080
B080
5F00
6300
3E00
ENDCHAR

STARTCHAR ordfeminine
ENCODING 170
SWIDTH 602 0
DWIDTH 10 0
BBX 7 7 2 5
BITMAP
F8
84
04
7C
84
8C
76
ENDCHAR

STARTCHAR guillemotleft
ENCODING 171
SWIDTH 602 0
DWIDTH 10 0
BBX 9 7 1 1
BITMAP
0880
1980
2200
EE00
7700
3B80
1100
ENDCHAR

STARTCHAR logicalnot
ENCODING 172
SWIDTH 602 0
DWIDTH 10 0
BBX 8 5 1 2
BITMAP
FF
FF
01
01
01
ENDCHAR

STARTCHAR hyphen
ENCODING 173
SWIDTH 602 0
DWIDTH 10 0
BBX 7 2 2 4
BITMAP
FE
FE
ENDCHAR

STARTCHAR registered
ENCODING 174
SWIDTH 602 0
DWIDTH 10 0
BBX 9 9 1 3
BITMAP
3E00
6300
DD80
9480
9C80
9880
D580
6300
3E00
ENDCHAR

STARTCHAR macron
ENCODING 175
SWIDTH 602 0
DWIDTH 10 0
BBX 5 2 3 10
BITMAP
F8
F8
ENDCHAR

STARTCHAR degree
ENCODING 176
SWIDTH 602 0
DWIDTH 10 0
BBX 3 3 4 9
BITMAP
E0
A0
E0
ENDCHAR

STARTCHAR plusminus
ENCODING 177
SWIDTH 602 0
DWIDTH 10 0
BBX 9 9 1 0
BITMAP
0800
0800
0800
FF80
FF80
0800
0000
FF80
FF80
ENDCHAR

STARTCHAR twosuperior
ENCODING 178
SWIDTH 602 0
DWIDTH 10 0
BBX 3 7 3 5
BITMAP
E0
20
20
60
40
80
E0
ENDCHAR

STARTCHAR threesuperior
ENCODING 179
SWIDTH 602 0
DWIDTH 10 0
BBX 4 7 3 5
BITMAP
E0
10
10
60
10
10
E0
ENDCHAR

STARTCHAR acute
ENCODING 180
SWIDTH 602 0
DWIDTH 10 0
BBX 4 2 3 10
BITMAP
70
C0
ENDCHAR

STARTCHAR mu
ENCODING 181
SWIDTH 602 0
DWIDTH 10 0
BBX 8 11 1 -2
BITMAP
C3
C3
C3
C3
C3
C3
C7
FF
FB
C0
C0
ENDCHAR

STARTCHAR paragraph
ENCODING 182
SWIDTH 602 0
DWIDTH 10 0
BBX 7 14 1 -2
BITMAP
7E
FE
FA
FA
7A
1A
0A
0A
0A
0A
0A
0A
0A
0A
ENDCHAR

STARTCHAR periodcentered
ENCODING 183
SWIDTH 602 0
DWIDTH 10 0
BBX 3 3 4 3
BITMAP
E0
E0
E0
ENDCHAR

STARTCHAR cedilla
ENCODING 184
SWIDTH 602 0
DWIDTH 10 0
BBX 2 4 5 -3
BITMAP
80
80
C0
C0
ENDCHAR

STARTCHAR onesuperior
ENCODING 185
SWIDTH 602 0
DWIDTH 10 0
BBX 3 7 3 5
BITMAP
C0
40
40
40
40
40
E0
ENDCHAR

STARTCHAR ordmasculine
ENCODING 186
SWIDTH 602 0
DWIDTH 10 0
BBX 7 7 2 5
BITMAP
7C
C6
82
82
82
C6
7C
ENDCHAR

STARTCHAR guillemotright
ENCODING 187
SWIDTH 602 0
DWIDTH 10 0
BBX 9 7 1 1
BITMAP
4400
EE00
7700
3B80
2200
CC00
8800
ENDCHAR

STARTCHAR onequarter
ENCODING 188
SWIDTH 602 0
DWIDTH 10 0
BBX 10 12 0 0
BITMAP
C0C0
4080
4100
4300
4200
4480
E980
1980
1280
23C0
6080
C080
ENDCHAR

STARTCHAR onehalf
ENCODING 189
SWIDTH 602 0
DWIDTH 10 0
BBX 10 12 0 0
BITMAP
C0C0
4080
4100
4300
4200
45C0
E840
1840
10C0
2080
6100
C1C0
ENDCHAR

STARTCHAR threequarters
ENCODING 190
SWIDTH 602 0
DWIDTH 10 0
BBX 10 12 0 0
BITMAP
E0C0
1080
1100
6300
1200
1480
E980
1980
1280
23C0
6080
C080
ENDCHAR

STARTCHAR questiondown
ENCODING 191
SWIDTH 602 0
DWIDTH 10 0
BBX 8 12 1 -3
BITMAP
0C
0C
00
00
0C
08
30
60
C1
C1
FF
7E
ENDCHAR

STARTCHAR Agrave
ENCODING 192
SWIDTH 602 0
DWIDTH 10 0
BBX 10 15 0 0
BITMAP
1C00
0600
0000
0C00
0E00
1E00
1600
1700
2300
2300
3F00
7F80
4180
4180
81C0
ENDCHAR

STARTCHAR Aacute
ENCODING 193
SWIDTH 602 0
DWIDTH 10 0
BBX 10 15 0 0
BITMAP
0E00
1800
0000
0C00
0E00
1E00
1600
1700
2300
2300
3F00
7F80
4180
4180
81C0
ENDCHAR

STARTCHAR Acircumflex
ENCODING 194
SWIDTH 602 0
DWIDTH 10 0
BBX 10 15 0 0
BITMAP
1C00
3600
0000
0C00
0E00
1E00
1600
1700
2300
2300
3F00
7F80
4180
4180
81C0
ENDCHAR

STARTCHAR Atilde
ENCODING 195
SWIDTH 602 0
DWIDTH 10 0
BBX 10 15 0 0
BITMAP
3E00
2E00
0000
0C00
0E00
1E00
1600
1700
2300
2300
3F00
7F80
4180
4180
81C0
ENDCHAR

STARTCHAR Adieresis
ENCODING 196
SWIDTH 602 0
DWIDTH 10 0
BBX 10 15 0 0
BITMAP
3600
3600
0000
0C00
0E00
1E00
1600
1700
2300
2300
3F00
7F80
4180
4180
81C0
ENDCHAR

STARTCHAR Aring
ENCODING 197
SWIDTH 602 0
DWIDTH 10 0
BBX 10 15 0 0
BITMAP
1C00
1C00
0000
0C00
0E00
1E00
1600
1700
2300
2300
3F00
7F80
4180
4180
81C0
ENDCHAR

STARTCHAR AE
ENCODING 198
SWIDTH 602 0
DWIDTH 10 0
BBX 9 12 0 0
BITMAP
0780
0F80
0E00
1E00
1600
1780
2780
2600
3E00
7E00
4780
C780
ENDCHAR

STARTCHAR Ccedilla
ENCODING 199
SWIDTH 602 0
DWIDTH 10 0
BBX 9 16 1 -4
BITMAP
1F80
3F80
7080
E000
C000
C000
C000
C000
E000
7080
3F80
1F00
0800
0800
0C00
0C00
ENDCHAR

STARTCHAR Egrave
ENCODING 200
SWIDTH 602 0
DWIDTH 10 0
BBX 7 15 2 0
BITMAP
70
18
00
FE
FE
C0
C0
C0
FC
FC
C0
C0
C0
FE
FE
ENDCHAR

STARTCHAR Eacute
ENCODING 201
SWIDTH 602 0
DWIDTH 10 0
BBX 7 15 2 0
BITMAP
38
60
00
FE
FE
C0
C0
C0
FC
FC
C0
C0
C0
FE
FE
ENDCHAR

STARTCHAR Ecircumflex
ENCODING 202
SWIDTH 602 0
DWIDTH 10 0
BBX 7 15 2 0
BITMAP
38
6C
00
FE
FE
C0
C0
C0
FC
FC
C0
C0
C0
FE
FE
ENDCHAR

STARTCHAR Edieresis
ENCODING 203
SWIDTH 602 0
DWIDTH 10 0
BBX 7 15 2 0
BITMAP
6C
6C
00
FE
FE
C0
C0
C0
FC
FC
C0
C0
C0
FE
FE
ENDCHAR

STARTCHAR Igrave
ENCODING 204
SWIDTH 602 0
DWIDTH 10 0
BBX 8 15 1 0
BITMAP
38
0C
00
FF
FF
18
18
18
18
18
18
18
18
FF
FF
ENDCHAR

STARTCHAR Iacute
ENCODING 205
SWIDTH 602 0
DWIDTH 10 0
BBX 8 15 1 0
BITMAP
1C
30
00
FF
FF
18
18
18
18
18
18
18
18
FF
FF
ENDCHAR

STARTCHAR Icircumflex
ENCODING 206
SWIDTH 602 0
DWIDTH 10 0
BBX 8 15 1 0
BITMAP
1C
36
00
FF
FF
18
18
18
18
18
18
18
18
FF
FF
ENDCHAR

STARTCHAR Idieresis
ENCODING 207
SWIDTH 602 0
DWIDTH 10 0
BBX 8 15 1 0
BITMAP
6C
6C
00
FF
FF
18
18
18
18
18
18
18
18
FF
FF
ENDCHAR

STARTCHAR Eth
ENCODING 208
SWIDTH 602 0
DWIDTH 10 0
BBX 10 12 0 0
BITMAP
7F00
7F80
63C0
61C0
60C0
F8C0
F8C0
60C0
60C0
6180
7F80
7E00
ENDCHAR

STARTCHAR Ntilde
ENCODING 209
SWIDTH 602 0
DWIDTH 10 0
BBX 8 15 1 0
BITMAP
3E
2E
00
C1
E1
E1
B1
B1
99
99
8D
8D
87
87
83
ENDCHAR

STARTCHAR Ograve
ENCODING 210
SWIDTH 602 0
DWIDTH 10 0
BBX 9 15 1 0
BITMAP
3800
0C00
0000
3E00
7F00
6300
C180
C180
C180
C180
C180
C180
6300
7F00
3E00
ENDCHAR

STARTCHAR Oacute
ENCODING 211
SWIDTH 602 0
DWIDTH 10 0
BBX 9 15 1 0
BITMAP
1C00
3000
0000
3E00
7F00
6300
C180
C180
C180
C180
C180
C180
6300
7F00
3E00
ENDCHAR

STARTCHAR Ocircumflex
ENCODING 212
SWIDTH 602 0
DWIDTH 10 0
BBX 9 15 1 0
BITMAP
1C00
3600
0000
3E00
7F00
6300
C180
C180
C180
C180
C180
C180
6300
7F00
3E00
ENDCHAR

STARTCHAR Otilde
ENCODING 213
SWIDTH 602 0
DWIDTH 10 0
BBX 9 15 1 0
BITMAP
3E00
2E00
0000
3E00
7F00
6300
C180
C180
C180
C180
C180
C180
6300
7F00
3E00
ENDCHAR

STARTCHAR Odieresis
ENCODING 214
SWIDTH 602 0
DWIDTH 10 0
BBX 9 15 1 0
BITMAP
3600
3600
0000
3E00
7F00
6300
C180
C180
C180
C180
C180
C180
6300
7F00
3E00
ENDCHAR

STARTCHAR multiply
ENCODING 215
SWIDTH 602 0
DWIDTH 10 0
BBX 9 9 1 0
BITMAP
4100
E380
7700
3E00
1C00
3E00
7700
E380
4100
ENDCHAR

STARTCHAR Oslash
ENCODING 216
SWIDTH 602 0
DWIDTH 10 0
BBX 9 12 1 0
BITMAP
3E80
7F80
6300
C380
C780
C580
C980
D980
D180
6300
7F00
FE00
ENDCHAR

STARTCHAR Ugrave
ENCODING 217
SWIDTH 602 0
DWIDTH 10 0
BBX 8 15 1 0
BITMAP
38
0C
00
C1
C1
C1
C1
C1
C1
C1
C1
C1
E3
7E
3C
ENDCHAR

STARTCHAR Uacute
ENCODING 218
SWIDTH 602 0
DWIDTH 10 0
BBX 8 15 1 0
BITMAP
1C
30
00
C1
C1
C1
C1
C1
C1
C1
C1
C1
E3
7E
3C
ENDCHAR

STARTCHAR Ucircumflex
ENCODING 219
SWIDTH 602 0
DWIDTH 10 0
BBX 8 15 1 0
BITMAP
1C
36
00
C1
C1
C1
C1
C1
C1
C1
C1
C1
E3
7E
3C
ENDCHAR

STARTCHAR Udieresis
ENCODING 220
SWIDTH 602 0
DWIDTH 10 0
BBX 8 15 1 0
BITMAP
6C
6C
00
C1
C1
C1
C1
C1
C1
C1
C1
C1
E3
7E
3C
ENDCHAR

STARTCHAR Yacute
ENCODING 221
SWIDTH 602 0
DWIDTH 10 0
BBX 10 15 0 0
BITMAP
0E00
1800
0000
E0C0
6080
3100
3100
1A00
1E00
0C00
0C00
0C00
0C00
0C00
0C00
ENDCHAR

STARTCHAR Thorn
ENCODING 222
SWIDTH 602 0
DWIDTH 10 0
BBX 8 12 2 0
BITMAP
C0
C0
FE
FF
C3
C3
C7
FE
FC
C0
C0
C0
ENDCHAR

STARTCHAR germandbls
ENCODING 223
SWIDTH 602 0
DWIDTH 10 0
BBX 9 13 1 0
BITMAP
7C00
7E00
C600
C400
C400
C800
CC00
C700
C380
C180
C980
CF80
CF00
ENDCHAR

STARTCHAR agrave
ENCODING 224
SWIDTH 602 0
DWIDTH 10 0
BBX 9 12 1 0
BITMAP
3800
0C00
0000
3E00
7F00
4300
3F00
FF00
C300
C700
FF80
7B80
ENDCHAR

STARTCHAR aacute
ENCODING 225
SWIDTH 602 0
DWIDTH 10 0
BBX 9 12 1 0
BITMAP
1C00
3000
0000
3E00
7F00
4300
3F00
FF00
C300
C700
FF80
7B80
ENDCHAR

STARTCHAR acircumflex
ENCODING 226
SWIDTH 602 0
DWIDTH 10 0
BBX 9 12 1 0
BITMAP
1C00
3600
0000
3E00
7F00
4300
3F00
FF00
C300
C700
FF80
7B80
ENDCHAR

STARTCHAR atilde
ENCODING 227
SWIDTH 602 0
DWIDTH 10 0
BBX 9 12 1 0
BITMAP
3E00
2E00
0000
3E00
7F00
4300
3F00
FF00
C300
C700
FF80
7B80
ENDCHAR

STARTCHAR adieresis
ENCODING 228
SWIDTH 602 0
DWIDTH 10 0
BBX 9 12 1 0
BITMAP
3600
3600
0000
3E00
7F00
4300
3F00
FF00
C300
C700
FF80
7B80
ENDCHAR

STARTCHAR aring
ENCODING 229
SWIDTH 602 0
DWIDTH 10 0
BBX 9 12 1 0
BITMAP
1C00
1C00
0000
3E00
7F00
4300
3F00
FF00
C300
C700
FF80
7B80
ENDCHAR

STARTCHAR ae
ENCODING 230
SWIDTH 602 0
DWIDTH 10 0
BBX 10 9 0 0
BITMAP
3B80
7F80
4CC0
7FC0
FFC0
CC00
CC40
FFC0
7780
ENDCHAR

STARTCHAR ccedilla
ENCODING 231
SWIDTH 602 0
DWIDTH 10 0
BBX 8 13 1 -4
BITMAP
3F
7F
E1
C0
C0
C0
E0
7F
3F
10
10
18
18
ENDCHAR

STARTCHAR egrave
ENCODING 232
SWIDTH 602 0
DWIDTH 10 0
BBX 8 12 1 0
BITMAP
38
0C
00
3C
7E
E3
C3
FF
FF
C0
7F
3F
ENDCHAR

STARTCHAR eacute
ENCODING 233
SWIDTH 602 0
DWIDTH 10 0
BBX 8 12 1 0
BITMAP
1C
30
00
3C
7E
E3
C3
FF
FF
C0
7F
3F
ENDCHAR

STARTCHAR ecircumflex
ENCODING 234
SWIDTH 602 0
DWIDTH 10 0
BBX 8 12 1 0
BITMAP
1C
36
00
3C
7E
E3
C3
FF
FF
C0
7F
3F
ENDCHAR

STARTCHAR edieresis
ENCODING 235
SWIDTH 602 0
DWIDTH 10 0
BBX 8 12 1 0
BITMAP
6C
6C
00
3C
7E
E3
C3
FF
FF
C0
7F
3F
ENDCHAR

STARTCHAR igrave
ENCODING 236
SWIDTH 602 0
DWIDTH 10 0
BBX 5 12 2 0
BITMAP
70
18
00
F8
F8
18
18
18
18
18
18
18
ENDCHAR

STARTCHAR iacute
ENCODING 237
SWIDTH 602 0
DWIDTH 10 0
BBX 5 12 2 0
BITMAP
38
60
00
F8
F8
18
18
18
18
18
18
18
ENDCHAR

STARTCHAR icircumflex
ENCODING 238
SWIDTH 602 0
DWIDTH 10 0
BBX 6 12 2 0
BITMAP
38
6C
00
F8
F8
18
18
18
18
18
18
18
ENDCHAR

STARTCHAR idieresis
ENCODING 239
SWIDTH 602 0
DWIDTH 10 0
BBX 6 12 2 0
BITMAP
6C
6C
00
F8
F8
18
18
18
18
18
18
18
ENDCHAR

STARTCHAR eth
ENCODING 240
SWIDTH 602 0
DWIDTH 10 0
BBX 9 12 1 0
BITMAP
FE00
FC00
1E00
2700
3F00
7F80
E380
C180
C180
E380
7F00
3E00
ENDCHAR

STARTCHAR ntilde
ENCODING 241
SWIDTH 602 0
DWIDTH 10 0
BBX 8 12 1 0
BITMAP
7C
5C
00
DE
FF
FF
E3
C3
C3
C3
C3
C3
ENDCHAR

STARTCHAR ograve
ENCODING 242
SWIDTH 602 0
DWIDTH 10 0
BBX 9 12 1 0
BITMAP
3800
0C00
0000
3E00
7F00
E380
C180
C180
C180
E380
7F00
3E00
ENDCHAR

STARTCHAR oacute
ENCODING 243
SWIDTH 602 0
DWIDTH 10 0
BBX 9 12 1 0
BITMAP
1C00
3000
0000
3E00
7F00
E380
C180
C180
C180
E380
7F00
3E00
ENDCHAR

STARTCHAR ocircumflex
ENCODING 244
SWIDTH 602 0
DWIDTH 10 0
BBX 9 12 1 0
BITMAP
1C00
3600
0000
3E00
7F00
E380
C180
C180
C180
E380
7F00
3E00
ENDCHAR

STARTCHAR otilde
ENCODING 245
SWIDTH 602 0
DWIDTH 10 0
BBX 9 12 1 0
BITMAP
3E00
2E00
0000
3E00
7F00
E380
C180
C180
C180
E380
7F00
3E00
ENDCHAR

STARTCHAR odieresis
ENCODING 246
SWIDTH 602 0
DWIDTH 10 0
BBX 9 12 1 0
BITMAP
3600
3600
0000
3E00
7F00
E380
C180
C180
C180
E380
7F00
3E00
ENDCHAR

STARTCHAR divide
ENCODING 247
SWIDTH 602 0
DWIDTH 10 0
BBX 8 8 1 0
BITMAP
18
18
00
FF
FF
00
18
18
ENDCHAR

STARTCHAR oslash
ENCODING 248
SWIDTH 602 0
DWIDTH 10 0
BBX 9 9 1 0
BITMAP
3F80
7F00
E380
C580
C980
D980
F380
7F00
FE00
ENDCHAR

STARTCHAR ugrave
ENCODING 249
SWIDTH 602 0
DWIDTH 10 0
BBX 8 12 1 0
BITMAP
38
0C
00
C3
C3
C3
C3
C3
C7
FF
FF
7B
ENDCHAR

STARTCHAR uacute
ENCODING 250
SWIDTH 602 0
DWIDTH 10 0
BBX 8 12 1 0
BITMAP
1C
30
00
C3
C3
C3
C3
C3
C7
FF
FF
7B
ENDCHAR

STARTCHAR ucircumflex
ENCODING 251
SWIDTH 602 0
DWIDTH 10 0
BBX 8 12 1 0
BITMAP
1C
36
00
C3
C3
C3
C3
C3
C7
FF
FF
7B
ENDCHAR

STARTCHAR udieresis
ENCODING 252
SWIDTH 602 0
DWIDTH 10 0
BBX 8 12 1 0
BITMAP
36
36
00
C3
C3
C3
C3
C3
C7
FF
FF
7B
ENDCHAR

STARTCHAR yacute
ENCODING 253
SWIDTH 602 0
DWIDTH 10 0
BBX 9 15 0 -3
BITMAP
0E00
1800
0000
E080
6080
3100
3100
1A00
1A00
0C00
0C00
0800
0800
7000
6000
ENDCHAR

STARTCHAR thorn
ENCODING 254
SWIDTH 602 0
DWIDTH 10 0
BBX 8 14 1 -3
BITMAP
C0
C0
DC
FE
FF
E3
C3
C3
C7
FE
DC
C0
C0
C0
ENDCHAR

STARTCHAR ydieresis
ENCODING 255
SWIDTH 602 0
DWIDTH 10 0
BBX 9 15 0 -3
BITMAP
3600
3600
0000
E080
6080
3100
3100
1A00
1A00
0C00
0C00
0800
0800
7000
6000
ENDCHAR
ENDFONT
